<svg xmlns="http://www.w3.org/2000/svg" viewBox="0 0 400 400">
  <!-- Background with border -->
  <rect width="400" height="400" fill="#e6fffa" stroke="#333" stroke-width="4"/>
  
  <!-- NFT Frame -->
  <rect x="20" y="20" width="360" height="310" rx="10" fill="#fff" stroke="#666" stroke-width="2"/>
  
  <!-- Student head -->
  <circle cx="200" cy="120" r="60" fill="#f8d5c0"/>
  
  <!-- Disheveled hair -->
  <path d="M160 75 Q200 50 240 75" stroke="#222" stroke-width="18" fill="none"/>
  <path d="M155 90 Q175 65 195 80" stroke="#222" stroke-width="10" fill="none"/>
  <path d="M205 80 Q225 65 245 90" stroke="#222" stroke-width="10" fill="none"/>
  
  <!-- Dark circles under eyes -->
  <path d="M170 125 Q180 135 190 125" stroke="#777" stroke-width="6" fill="none"/>
  <path d="M210 125 Q220 135 230 125" stroke="#777" stroke-width="6" fill="none"/>
  
  <!-- Eyes (bloodshot) -->
  <circle cx="180" cy="115" r="8" fill="#fff" stroke="#f00" stroke-width="1" opacity="0.3"/>
  <circle cx="220" cy="115" r="8" fill="#fff" stroke="#f00" stroke-width="1" opacity="0.3"/>
  <circle cx="180" cy="115" r="4" fill="#000"/>
  <circle cx="220" cy="115" r="4" fill="#000"/>
  
  <!-- Mouth (exhausted frown) -->
  <path d="M185 145 Q200 135 215 145" stroke="#000" stroke-width="2" fill="none"/>
  
  <!-- Body/Shirt -->
  <path d="M140 180 v80 h120 v-80 q-60 40 -120 0" fill="#ff9966"/>
  
  <!-- Desktop showing StackOverflow -->
  <rect x="120" y="190" width="160" height="90" rx="5" fill="#333" stroke="#000" stroke-width="2"/>
  <rect x="130" y="200" width="140" height="70" rx="2" fill="#fff" stroke="#000" stroke-width="1"/>
  
  <!-- StackOverflow interface -->
  <rect x="130" y="200" width="140" height="15" fill="#f48024"/>
  <text x="135" y="211" font-family="Arial" font-size="10" fill="#fff">Stack Overflow</text>
  
  <rect x="140" y="225" width="120" height="10" fill="#eee"/>
  <text x="145" y="233" font-family="Arial" font-size="8" fill="#000">Power grid optimization error</text>
  
  <rect x="140" y="240" width="120" height="25" fill="#fff" stroke="#aaa" stroke-width="1"/>
  <text x="145" y="252" font-family="Arial" font-size="6" fill="#000">The load balancing algorithm needs to...</text>
  <text x="145" y="260" font-family="Arial" font-size="6" fill="#000">Check your transformer efficiency at...</text>
  
  <!-- Energy Drink -->
  <rect x="290" y="210" width="20" height="40" rx="3" fill="#2ecc71" stroke="#000" stroke-width="1"/>
  <path d="M295 215 Q300 220 305 215" stroke="#fff" stroke-width="1" fill="none"/>
  
  <!-- Coffee mug -->
  <rect x="90" y="220" width="25" height="30" rx="3" fill="#8B4513" stroke="#000" stroke-width="1"/>
  <path d="M90 225 h-10 v15 h10" stroke="#000" stroke-width="2" fill="none"/>
  <path d="M90 230 Q102 235 115 230" stroke="#fff" stroke-width="1" fill="none" opacity="0.5"/>
  
  <!-- Label at bottom -->
  <rect x="20" y="340" width="360" height="40" rx="5" fill="#333"/>
  <text x="35" y="365" font-family="Arial" font-size="14" fill="#fff">EEM Student • All-Nighter • 3,500 USDC</text>
  
  <!-- Time showing late night -->
  <circle cx="335" cy="70" r="20" fill="#fff" stroke="#000" stroke-width="2"/>
  <line x1="335" y1="70" x2="335" y2="55" stroke="#000" stroke-width="2"/>
  <line x1="335" y1="70" x2="345" y2="75" stroke="#000" stroke-width="2"/>
  <text x="320" y="100" font-family="Arial" font-size="10" fill="#000">2:37 AM</text>
  
  <!-- EEM Program Badge -->
  <circle cx="55" cy="70" r="25" fill="#ff7f50" stroke="#fff" stroke-width="2"/>
  <text x="55" y="75" font-family="Arial" font-weight="bold" font-size="14" fill="#fff" text-anchor="middle">EEM</text>
  
  <!-- Small text explaining program -->
  <text x="55" y="90" font-family="Arial" font-size="6" fill="#000" text-anchor="middle">Power Engineering</text>
  <text x="55" y="98" font-family="Arial" font-size="6" fill="#000" text-anchor="middle">&amp; Management</text>
</svg>  