<svg xmlns="http://www.w3.org/2000/svg" viewBox="0 0 400 400">
  <!-- Background with border -->
  <rect width="400" height="400" fill="#e6f2ff" stroke="#333" stroke-width="4"/>
  
  <!-- NFT Frame -->
  <rect x="20" y="20" width="360" height="310" rx="10" fill="#fff" stroke="#666" stroke-width="2"/>
  
  <!-- Student head -->
  <circle cx="200" cy="120" r="60" fill="#f8d5c0"/>
  
  <!-- Messy hair -->
  <path d="M160 80 Q200 40 240 80" stroke="#553311" stroke-width="20" fill="none"/>
  <path d="M150 90 Q170 60 190 90" stroke="#553311" stroke-width="12" fill="none"/>
  <path d="M210 90 Q230 60 250 90" stroke="#553311" stroke-width="12" fill="none"/>
  
  <!-- Dark circles under eyes -->
  <path d="M170 125 Q180 135 190 125" stroke="#aaa" stroke-width="4" fill="none"/>
  <path d="M210 125 Q220 135 230 125" stroke="#aaa" stroke-width="4" fill="none"/>
  
  <!-- Eyes (tired) -->
  <path d="M175 115 Q180 120 185 115" stroke="#000" stroke-width="2" fill="none"/>
  <path d="M215 115 Q220 120 225 115" stroke="#000" stroke-width="2" fill="none"/>
  
  <!-- Mouth (yawning) -->
  <ellipse cx="200" cy="145" rx="10" ry="5" fill="#000"/>
  
  <!-- Eyeglasses -->
  <rect x="165" y="105" width="25" height="20" rx="5" fill="none" stroke="#000" stroke-width="2"/>
  <rect x="210" y="105" width="25" height="20" rx="5" fill="none" stroke="#000" stroke-width="2"/>
  <line x1="190" y1="115" x2="210" y2="115" stroke="#000" stroke-width="2"/>
  
  <!-- Body/Shirt -->
  <path d="M140 180 v80 h120 v-80 q-60 40 -120 0" fill="#87cefa"/>
  
  <!-- Book "Skripta" -->
  <rect x="130" y="190" width="80" height="100" fill="#f5f5dc" stroke="#000" stroke-width="2"/>
  <rect x="130" y="190" width="40" height="100" fill="#f5f5dc" stroke="#000" stroke-width="1"/>
  <text x="140" y="240" font-family="Arial" font-size="12" fill="#000">SKRIPTA</text>
  <text x="140" y="255" font-family="Arial" font-size="8" fill="#000">OI</text>
  
  <!-- Coffee cup -->
  <rect x="240" y="210" width="30" height="40" rx="5" fill="#fff" stroke="#000" stroke-width="2"/>
  <path d="M240 220 h-10 v20 h10" fill="none" stroke="#000" stroke-width="2"/>
  <path d="M270 220 h10 v20 h-10" fill="none" stroke="#000" stroke-width="2"/>
  <path d="M240 215 h30" stroke="#8B4513" stroke-width="4"/>
  <path d="M245 225 Q255 230 265 225" stroke="#8B4513" stroke-width="2" fill="none"/>
  
  <!-- Label at bottom -->
  <rect x="20" y="340" width="360" height="40" rx="5" fill="#333"/>
  <text x="35" y="365" font-family="Arial" font-size="14" fill="#fff">OI Student • Sleep-Deprived • Skripta</text>
  
  <!-- OI Program Badge -->
  <circle cx="55" cy="70" r="25" fill="#3498db" stroke="#fff" stroke-width="2"/>
  <text x="55" y="75" font-family="Arial" font-weight="bold" font-size="14" fill="#fff" text-anchor="middle">OI</text>
  
  <!-- Small text explaining program -->
  <text x="55" y="90" font-family="Arial" font-size="6" fill="#000" text-anchor="middle">Mathematics &amp;</text>
  <text x="55" y="98" font-family="Arial" font-size="6" fill="#000" text-anchor="middle">Programming</text>
</svg>
