<svg xmlns="http://www.w3.org/2000/svg" viewBox="0 0 400 400">
  <!-- Background with border -->
  <rect width="400" height="400" fill="#ffe6f2" stroke="#333" stroke-width="4"/>
  
  <!-- NFT Frame -->
  <rect x="20" y="20" width="360" height="310" rx="10" fill="#fff" stroke="#666" stroke-width="2"/>
  
  <!-- Student head -->
  <circle cx="200" cy="120" r="60" fill="#f8d5c0"/>
  
  <!-- Female hairstyle -->
  <path d="M150 80 Q170 50 200 60 Q230 50 250 80" stroke="#8B4513" stroke-width="15" fill="none"/>
  <path d="M140 100 Q170 70 200 80 Q230 70 260 100" stroke="#8B4513" stroke-width="20" fill="none"/>
  <path d="M140 120 Q170 160 200 120" stroke="#8B4513" stroke-width="15" fill="none"/>
  <path d="M200 120 Q230 160 260 120" stroke="#8B4513" stroke-width="15" fill="none"/>
  
  <!-- Wide eyes (caffeine) -->
  <circle cx="175" cy="110" r="10" fill="#fff" stroke="#000" stroke-width="1"/>
  <circle cx="225" cy="110" r="10" fill="#fff" stroke="#000" stroke-width="1"/>
  <circle cx="175" cy="110" r="5" fill="#000"/>
  <circle cx="225" cy="110" r="5" fill="#000"/>
  
  <!-- Red cheeks (flushed from energy drinks) -->
  <circle cx="165" cy="130" r="10" fill="#ffaaaa" opacity="0.6"/>
  <circle cx="235" cy="130" r="10" fill="#ffaaaa" opacity="0.6"/>
  
  <!-- Mouth (alert expression) -->
  <path d="M190 140 Q200 150 210 140" stroke="#000" stroke-width="2" fill="none"/>
  
  <!-- Body/Shirt -->
  <path d="M140 180 v80 h120 v-80 q-60 40 -120 0" fill="#ff99cc"/>
  
  <!-- Laptop with bioinformatics visualization -->
  <rect x="210" y="210" width="70" height="50" rx="5" fill="#333" stroke="#000" stroke-width="2"/>
  <rect x="215" y="215" width="60" height="35" rx="2" fill="#6fc3df" stroke="#000" stroke-width="1"/>
  
  <!-- DNA helix on screen -->
  <path d="M225 230 q10 -10 20 0 q10 10 20 0" stroke="#fff" stroke-width="1.5" fill="none"/>
  <path d="M225 240 q10 10 20 0 q10 -10 20 0" stroke="#fff" stroke-width="1.5" fill="none"/>
  <line x1="230" y1="225" x2="230" y2="245" stroke="#f00" stroke-width="1"/>
  <line x1="240" y1="225" x2="240" y2="245" stroke="#0f0" stroke-width="1"/>
  <line x1="250" y1="225" x2="250" y2="245" stroke="#00f" stroke-width="1"/>
  <line x1="260" y1="225" x2="260" y2="245" stroke="#ff0" stroke-width="1"/>
  
  <text x="225" y="255" font-family="Arial" font-size="6" fill="#fff">GENOMICS ANALYSIS</text>
  
  <!-- Energy Drinks -->
  <rect x="120" y="200" width="20" height="40" rx="3" fill="#2ecc71" stroke="#000" stroke-width="1"/>
  <text x="122" y="225" font-family="Arial" font-size="7" fill="#fff" transform="rotate(-90, 130, 220)">ENERGY</text>
  
  <rect x="150" y="190" width="20" height="40" rx="3" fill="#e74c3c" stroke="#000" stroke-width="1"/>
  <text x="152" y="215" font-family="Arial" font-size="7" fill="#fff" transform="rotate(-90, 160, 210)">ENERGY</text>
  
  <rect x="180" y="210" width="20" height="40" rx="3" fill="#3498db" stroke="#000" stroke-width="1"/>
  <text x="182" y="235" font-family="Arial" font-size="7" fill="#fff" transform="rotate(-90, 190, 230)">ENERGY</text>
  
  <!-- Label at bottom -->
  <rect x="20" y="340" width="360" height="40" rx="5" fill="#333"/>
  <text x="35" y="365" font-family="Arial" font-size="14" fill="#fff">BIO Student • All-Nighter • 8000 USDC</text>
  
  <!-- Clock showing late hour -->
  <circle cx="320" cy="70" r="20" fill="#fff" stroke="#000" stroke-width="2"/>
  <line x1="320" y1="70" x2="320" y2="55" stroke="#000" stroke-width="2"/>
  <line x1="320" y1="70" x2="330" y2="75" stroke="#000" stroke-width="2"/>
  <text x="340" y="75" font-family="Arial" font-size="10" fill="#000">3:45 AM</text>
  
  <!-- BIO Program Badge -->
  <circle cx="55" cy="70" r="25" fill="#2ecc71" stroke="#fff" stroke-width="2"/>
  <text x="55" y="75" font-family="Arial" font-weight="bold" font-size="14" fill="#fff" text-anchor="middle">BIO</text>
  
  <!-- Small text explaining program -->
  <text x="55" y="90" font-family="Arial" font-size="6" fill="#000" text-anchor="middle">Medical Electronics</text>
  <text x="55" y="98" font-family="Arial" font-size="6" fill="#000" text-anchor="middle">&amp; Bioinformatics</text>
</svg>