<svg xmlns="http://www.w3.org/2000/svg" viewBox="0 0 400 400">
  <!-- Background with border -->
  <rect width="400" height="400" fill="#fff2e6" stroke="#333" stroke-width="4"/>
  
  <!-- NFT Frame -->
  <rect x="20" y="20" width="360" height="310" rx="10" fill="#fff" stroke="#666" stroke-width="2"/>
  
  <!-- Student head (sleeping/napping) -->
  <circle cx="200" cy="120" r="60" fill="#f8d5c0"/>
  
  <!-- Tidy hair -->
  <path d="M155 80 Q200 65 245 80" stroke="#663300" stroke-width="15" fill="none"/>
  <path d="M150 95 Q200 85 250 95" stroke="#663300" stroke-width="10" fill="none"/>
  
  <!-- Closed eyes (zzz) -->
  <path d="M175 115 Q185 110 195 115" stroke="#000" stroke-width="2" fill="none"/>
  <path d="M205 115 Q215 110 225 115" stroke="#000" stroke-width="2" fill="none"/>
  
  <!-- Mouth (slight smile while sleeping) -->
  <path d="M190 140 Q200 145 210 140" stroke="#000" stroke-width="2" fill="none"/>
  
  <!-- ZZZs to indicate sleeping -->
  <text x="270" y="90" font-family="Arial" font-weight="bold" font-size="20" fill="#333">Z</text>
  <text x="285" y="75" font-family="Arial" font-weight="bold" font-size="15" fill="#555">Z</text>
  <text x="295" y="60" font-family="Arial" font-weight="bold" font-size="10" fill="#777">z</text>
  
  <!-- Body/Shirt -->
  <path d="M140 180 v80 h120 v-80 q-60 40 -120 0" fill="#ffa07a"/>
  
  <!-- Desk with open textbook -->
  <rect x="120" y="260" width="160" height="10" fill="#8B4513"/>
  <path d="M160 190 v70 h30 h30 v-70 z" fill="#f5f5dc" stroke="#000" stroke-width="1"/>
  <line x1="190" y1="190" x2="190" y2="260" stroke="#000" stroke-width="1"/>
  <path d="M160 190 q30 10 60 0" fill="none" stroke="#000" stroke-width="1"/>
  
  <!-- Hidden "Tahak" (cheat sheet) -->
  <rect x="185" y="220" width="30" height="40" fill="#fff" stroke="#f00" stroke-width="1"/>
  <line x1="190" y1="230" x2="210" y2="230" stroke="#000" stroke-width="0.5"/>
  <line x1="190" y1="235" x2="210" y2="235" stroke="#000" stroke-width="0.5"/>
  <line x1="190" y1="240" x2="210" y2="240" stroke="#000" stroke-width="0.5"/>
  <line x1="190" y1="245" x2="210" y2="245" stroke="#000" stroke-width="0.5"/>
  <line x1="190" y1="250" x2="210" y2="250" stroke="#000" stroke-width="0.5"/>
  <text x="194" y="225" font-family="Arial" font-size="6" fill="#f00">TAHAK</text>
  <text x="191" y="229" font-family="Arial" font-size="4" fill="#000">Teaching Methods</text>
  
  <!-- Coffee cup (half-empty) -->
  <rect x="120" y="210" width="25" height="35" rx="3" fill="#f5f5f5" stroke="#000" stroke-width="1"/>
  <rect x="120" y="230" width="25" height="15" rx="0" fill="#8B4513"/>
  <path d="M130 210 v-10" stroke="#8B4513" stroke-width="2"/>
  <path d="M128 200 h4" stroke="#8B4513" stroke-width="2"/>
  
  <!-- Small digital clock -->
  <rect x="270" y="210" width="40" height="25" rx="3" fill="#000"/>
  <text x="275" y="228" font-family="Arial" font-size="12" fill="#0f0">14:30</text>
  
  <!-- Label at bottom -->
  <rect x="20" y="340" width="360" height="40" rx="5" fill="#333"/>
  <text x="35" y="365" font-family="Arial" font-size="14" fill="#fff">UEK Student • Power Napper • 5,000 USDC</text>
  
  <!-- Alarm clock -->
  <circle cx="330" cy="150" r="20" fill="#e74c3c" stroke="#000" stroke-width="2"/>
  <circle cx="330" cy="150" r="15" fill="#fff" stroke="#000" stroke-width="1"/>
  <line x1="330" y1="150" x2="330" y2="140" stroke="#000" stroke-width="2"/>
  <line x1="330" y1="150" x2="340" y2="150" stroke="#000" stroke-width="2"/>
  <circle cx="320" cy="140" r="3" fill="#000"/>
  <circle cx="340" cy="140" r="3" fill="#000"/>
  <path d="M330 165 l-3 5 h6 z" fill="#000"/>
  
  <!-- UEK Program Badge -->
  <circle cx="55" cy="70" r="25" fill="#e67e22" stroke="#fff" stroke-width="2"/>
  <text x="55" y="75" font-family="Arial" font-weight="bold" font-size="14" fill="#fff" text-anchor="middle">UEK</text>
  
  <!-- Explanation about UEK -->
  <text x="55" y="90" font-family="Arial" font-size="6" fill="#000" text-anchor="middle">Teaching</text>
  <text x="55" y="98" font-family="Arial" font-size="6" fill="#000" text-anchor="middle">Specialist</text>
</svg>