<svg xmlns="http://www.w3.org/2000/svg" viewBox="0 0 400 400">
  <!-- Background with border -->
  <rect width="400" height="400" fill="#f2e6ff" stroke="#333" stroke-width="4"/>
  
  <!-- NFT Frame -->
  <rect x="20" y="20" width="360" height="310" rx="10" fill="#fff" stroke="#666" stroke-width="2"/>
  
  <!-- Student head -->
  <circle cx="200" cy="120" r="60" fill="#f8d5c0"/>
  
  <!-- Short stylish hair -->
  <path d="M150 80 Q200 60 250 80" stroke="#000" stroke-width="15" fill="none"/>
  <path d="M150 90 Q180 80 200 90" stroke="#000" stroke-width="10" fill="none"/>
  <path d="M200 90 Q220 80 250 90" stroke="#000" stroke-width="10" fill="none"/>
  
  <!-- Wide eyes (caffeinated) -->
  <circle cx="175" cy="110" r="12" fill="#fff" stroke="#000" stroke-width="1"/>
  <circle cx="225" cy="110" r="12" fill="#fff" stroke="#000" stroke-width="1"/>
  <circle cx="175" cy="110" r="6" fill="#000"/>
  <circle cx="225" cy="110" r="6" fill="#000"/>
  
  <!-- Eyebrows raised (alert) -->
  <path d="M160 95 Q175 85 190 95" stroke="#000" stroke-width="2" fill="none"/>
  <path d="M210 95 Q225 85 240 95" stroke="#000" stroke-width="2" fill="none"/>
  
  <!-- Wide smile (caffeinated enthusiasm) -->
  <path d="M170 140 Q200 160 230 140" stroke="#000" stroke-width="3" fill="none"/>
  
  <!-- Body/Shirt -->
  <path d="M140 180 v80 h120 v-80 q-60 40 -120 0" fill="#c39bd3"/>
  
  <!-- Laptop with ChatGPT -->
  <rect x="150" y="190" width="100" height="70" rx="5" fill="#333" stroke="#000" stroke-width="2"/>
  <rect x="155" y="195" width="90" height="55" rx="2" fill="#343541" stroke="#000" stroke-width="1"/>
  
  <!-- ChatGPT interface -->
  <rect x="165" y="205" width="70" height="15" rx="7" fill="#40414f"/>
  <text x="170" y="216" font-family="Arial" font-size="10" fill="#fff">How to pass KYR?</text>
  
  <rect x="175" y="225" width="60" height="20" rx="5" fill="#343541" stroke="#10a37f" stroke-width="1"/>
  <text x="180" y="239" font-family="Arial" font-size="8" fill="#fff">Let me help you...</text>
  
  <!-- ChatGPT logo -->
  <circle cx="165" cy="235" r="7" fill="#10a37f"/>
  <text x="162" y="239" font-family="Arial" font-size="10" font-weight="bold" fill="#fff">C</text>
  
  <!-- Coffee cups -->
  <rect x="120" y="220" width="20" height="25" rx="3" fill="#8B4513" stroke="#000" stroke-width="1"/>
  <rect x="118" y="215" width="24" height="5" rx="2" fill="#d2b48c" stroke="#000" stroke-width="1"/>
  <path d="M120 225 Q130 230 140 225" stroke="#fff" stroke-width="1" opacity="0.5"/>
  
  <rect x="260" y="220" width="20" height="25" rx="3" fill="#8B4513" stroke="#000" stroke-width="1"/>
  <rect x="258" y="215" width="24" height="5" rx="2" fill="#d2b48c" stroke="#000" stroke-width="1"/>
  <path d="M260 225 Q270 230 280 225" stroke="#fff" stroke-width="1" opacity="0.5"/>
  
  <!-- Label at bottom -->
  <rect x="20" y="340" width="360" height="40" rx="5" fill="#333"/>
  <text x="35" y="365" font-family="Arial" font-size="14" fill="#fff">KYR Student • Caffeinated • ChatGPT</text>
  
  <!-- Caffeine molecule -->
  <circle cx="340" cy="70" r="5" fill="#000"/>
  <circle cx="320" cy="70" r="5" fill="#000"/>
  <circle cx="330" cy="50" r="5" fill="#000"/>
  <circle cx="330" cy="90" r="5" fill="#000"/>
  <circle cx="350" cy="85" r="5" fill="#000"/>
  <line x1="340" y1="70" x2="320" y2="70" stroke="#000" stroke-width="2"/>
  <line x1="330" y1="50" x2="330" y2="90" stroke="#000" stroke-width="2"/>
  <line x1="340" y1="70" x2="350" y2="85" stroke="#000" stroke-width="2"/>
  
  <!-- KYR Program Badge -->
  <circle cx="55" cy="70" r="25" fill="#e74c3c" stroke="#fff" stroke-width="2"/>
  <text x="55" y="75" font-family="Arial" font-weight="bold" font-size="14" fill="#fff" text-anchor="middle">KYR</text>
  
  <!-- Small text explaining program -->
  <text x="55" y="90" font-family="Arial" font-size="6" fill="#000" text-anchor="middle">Cybernetics</text>
  <text x="55" y="98" font-family="Arial" font-size="6" fill="#000" text-anchor="middle">&amp; Robotics</text>
</svg>
