<svg xmlns="http://www.w3.org/2000/svg" viewBox="0 0 400 400">
  <!-- Background with border (red theme) -->
  <rect width="400" height="400" fill="#ffe6e6" stroke="#333" stroke-width="4"/>
  
  <!-- NFT Frame -->
  <rect x="20" y="20" width="360" height="310" rx="10" fill="#fff" stroke="#666" stroke-width="2"/>
  
  <!-- Student head -->
  <circle cx="200" cy="120" r="60" fill="#f8d5c0"/>
  
  <!-- Messy hair (sleepwalking look) -->
  <path d="M150 70 Q200 50 250 70" stroke="#663300" stroke-width="15" fill="none"/>
  <path d="M140 85 Q170 65 200 75 Q230 65 260 85" stroke="#663300" stroke-width="12" fill="none"/>
  <path d="M145 100 Q175 85 205 95" stroke="#663300" stroke-width="10" fill="none"/>
  
  <!-- Closed/half-open sleepwalking eyes -->
  <path d="M170 110 Q180 105 190 110" stroke="#000" stroke-width="2" fill="none"/>
  <path d="M210 110 Q220 105 230 110" stroke="#000" stroke-width="2" fill="none"/>
  
  <!-- Neutral mouth (sleepwalking expression) -->
  <path d="M190 140 Q200 142 210 140" stroke="#000" stroke-width="2" fill="none"/>
  
  <!-- Body/Shirt (red for OES) -->
  <path d="M140 180 v80 h120 v-80 q-60 40 -120 0" fill="#ff6666"/>
  
  <!-- Arms outstretched (sleepwalking pose) -->
  <path d="M140 200 h-30" stroke="#f8d5c0" stroke-width="10" fill="none"/>
  <path d="M260 200 h30" stroke="#f8d5c0" stroke-width="10" fill="none"/>
  
  <!-- Laptop floating/carried while sleepwalking -->
  <rect x="170" y="220" width="80" height="50" rx="5" fill="#333" stroke="#000" stroke-width="2"/>
  <rect x="175" y="225" width="70" height="35" rx="2" fill="#991f1f" stroke="#000" stroke-width="1"/>
  
  <!-- Circuit board pattern on laptop screen -->
  <line x1="180" y1="230" x2="240" y2="230" stroke="#fff" stroke-width="0.5"/>
  <line x1="180" y1="240" x2="240" y2="240" stroke="#fff" stroke-width="0.5"/>
  <line x1="180" y1="250" x2="240" y2="250" stroke="#fff" stroke-width="0.5"/>
  <line x1="190" y1="225" x2="190" y2="255" stroke="#fff" stroke-width="0.5"/>
  <line x1="210" y1="225" x2="210" y2="255" stroke="#fff" stroke-width="0.5"/>
  <line x1="230" y1="225" x2="230" y2="255" stroke="#fff" stroke-width="0.5"/>
  
  <!-- Small electronic components on screen -->
  <rect x="195" y="235" width="5" height="5" fill="#ffcc00"/>
  <rect x="215" y="245" width="5" height="5" fill="#00cc00"/>
  <circle cx="225" cy="235" r="2.5" fill="#3399ff"/>
  <circle cx="185" cy="245" r="2.5" fill="#ff3399"/>
  
  <!-- ZZZs to indicate sleepwalking -->
  <text x="270" y="90" font-family="Arial" font-weight="bold" font-size="20" fill="#ff3333">Z</text>
  <text x="285" y="75" font-family="Arial" font-weight="bold" font-size="15" fill="#ff6666">Z</text>
  <text x="295" y="60" font-family="Arial" font-weight="bold" font-size="10" fill="#ff9999">z</text>
  
  <!-- Label at bottom -->
  <rect x="20" y="340" width="360" height="40" rx="5" fill="#333"/>
  <text x="35" y="365" font-family="Arial" font-size="14" fill="#fff">OES Student • Sleepwalking • Laptop</text>
  
  <!-- Clock showing late night hour -->
  <circle cx="320" cy="70" r="20" fill="#fff" stroke="#000" stroke-width="2"/>
  <line x1="320" y1="70" x2="320" y2="55" stroke="#000" stroke-width="2"/>
  <line x1="320" y1="70" x2="335" y2="70" stroke="#000" stroke-width="2"/>
  <text x="345" y="75" font-family="Arial" font-size="10" fill="#000">2:30 AM</text>
  
  <!-- Moon to indicate night -->
  <circle cx="350" cy="40" r="15" fill="#ffff99" stroke="#ffcc00" stroke-width="1"/>
  <circle cx="345" cy="35" r="12" fill="#ffe6e6" stroke="none"/>
  
  <!-- OES Program Badge -->
  <circle cx="55" cy="70" r="25" fill="#cc0000" stroke="#fff" stroke-width="2"/>
  <text x="55" y="75" font-family="Arial" font-weight="bold" font-size="14" fill="#fff" text-anchor="middle">OES</text>
  
  <!-- Small text explaining program -->
  <text x="55" y="90" font-family="Arial" font-size="6" fill="#000" text-anchor="middle">Open Electronic</text>
  <text x="55" y="98" font-family="Arial" font-size="6" fill="#000" text-anchor="middle">Systems</text>
  
  <!-- Electronic wave patterns -->
  <path d="M90 50 q5 -10 10 0 q5 10 10 0 q5 -10 10 0" stroke="#ff3333" stroke-width="1.5" fill="none"/>
  <path d="M90 60 q5 -10 10 0 q5 10 10 0 q5 -10 10 0" stroke="#ff6666" stroke-width="1.5" fill="none"/>
</svg>